Coordinates
datacolumns 6
datarows 61
range 0 0.6
inDegrees=yes
Units are S.I. units (second, meters, Newtons, ...)
If the header above contains a line with 'inDegrees', this indicates whether rotational values are in degrees (yes) or radians (no).
endheader
time	foot_tx	hip_flexion_r	knee_angle_r	ankle_angle_r	lumbar
0	0.17656568	56.33432589	-75.83999321	8.09427903	-27.00030705
0.01	0.17651441	56.41448784	-75.83636736	8.09801011	-27.08260231
0.02	0.17646865	56.46475646	-75.82916146	8.10335248	-27.20925174
0.03	0.17641312	56.55683425	-75.82762409	8.10968332	-27.30255162
0.04	0.17636209	56.61702019	-75.82135677	8.11751763	-27.44346934
0.05	0.17632048	56.72115919	-75.81629054	8.122431	-27.54963509
0.06	0.176273	56.79421495	-75.80950544	8.13107769	-27.70190722
0.07	0.17623345	56.91237906	-75.80384296	8.13680557	-27.81870572
0.08	0.17618755	57.00318404	-75.79532569	8.14555382	-27.97851421
0.09	0.17614747	57.13540719	-75.78841627	8.15218235	-28.10667945
0.1	0.17610768	57.27120489	-75.77935836	8.15887131	-28.24479059
0.11	0.1760711	57.38373026	-75.76749675	8.16748704	-28.42076145
0.12	0.17602666	57.53821109	-75.75921107	8.17624575	-28.56509361
0.13	0.17598939	57.6989024	-75.74814426	8.1842711	-28.71602644
0.14	0.17595152	57.86671948	-75.73614907	8.19329523	-28.87237958
0.15	0.17591104	58.04219808	-75.72331959	8.20367005	-29.03334004
0.16	0.1758702	58.2258092	-75.70989066	8.21560678	-29.19869974
0.17	0.17582859	58.41742503	-75.69586568	8.22933907	-29.36846534
0.18	0.17578797	58.61669002	-75.68123077	8.2448946	-29.54299734
0.19	0.17575108	58.82307688	-75.66582019	8.26210328	-29.72282881
0.2	0.17572039	59.036138	-75.64935876	8.28068573	-29.90845871
0.21	0.1756963	59.25574837	-75.63165691	8.30046985	-30.10007975
0.22	0.17567705	59.48223479	-75.61267731	8.32141864	-30.29755531
0.23	0.17566015	59.71645925	-75.59236759	8.34347715	-30.50034233
0.24	0.17564326	59.95975773	-75.57066278	8.36657595	-30.70747405
0.25	0.17562321	60.24655933	-75.55123551	8.38970966	-30.88091726
0.26	0.17560113	60.50329494	-75.52639398	8.41582432	-31.10180466
0.27	0.17557353	60.81860792	-75.5047985	8.44156214	-31.27208883
0.28	0.17554291	61.12859675	-75.48013546	8.46962374	-31.46180433
0.29	0.17551322	61.45544974	-75.45447186	8.49896469	-31.64619548
0.3	0.17548346	61.80057449	-75.42776291	8.52950772	-31.82383609
0.31	0.175457	62.16579113	-75.3993133	8.56056874	-31.99300363
0.32	0.17543151	62.5495745	-75.37063088	8.59339162	-32.15466007
0.33	0.17540605	62.94927431	-75.34107269	8.62818996	-32.31121353
0.34	0.1753805	63.3578487	-75.31013103	8.66585458	-32.46907335
0.35	0.17535118	63.76746905	-75.27777098	8.70793878	-32.63529745
0.36	0.17531632	64.17261191	-75.24397794	8.75549681	-32.81510961
0.37	0.17527354	64.57275585	-75.20938954	8.80924971	-33.00906926
0.38	0.17522388	64.97040732	-75.17461376	8.86913809	-33.21484018
0.39	0.17517913	65.36999607	-75.13762807	8.93275398	-33.42810853
0.4	0.17511491	65.76863019	-75.10508251	9.00590561	-33.65064541
0.41	0.17506349	66.16744466	-75.0688595	9.08230936	-33.88093007
0.42	0.1750116	66.56838418	-75.03205211	9.16460354	-34.11588843
0.43	0.17496479	66.97780825	-74.99442855	9.25136585	-34.34919517
0.44	0.17492332	67.40848409	-74.95544467	9.34047163	-34.56861565
0.45	0.17489035	67.86580665	-74.91499839	9.43087462	-34.76877652
0.46	0.17486373	68.35077376	-74.87306682	9.52275722	-34.94819156
0.47	0.17484274	68.86008543	-74.82981628	9.61697217	-35.10907203
0.48	0.1748304	69.39272054	-74.78321805	9.71258961	-35.25187696
0.49	0.174833	69.94894164	-74.73167356	9.80869202	-35.37489591
0.5	0.17484339	70.52854122	-74.67533973	9.90659727	-35.47559594
0.51	0.17486378	71.12505942	-74.61271404	10.00696553	-35.55760133
0.52	0.17489467	71.73589065	-74.54186308	10.10989747	-35.62029862
0.53	0.1749402	72.35997669	-74.45983834	10.2143569	-35.66161526
0.54	0.17500451	72.99080198	-74.3652365	10.32053293	-35.68496093
0.55	0.17508522	73.63141205	-74.25480681	10.42712425	-35.68288829
0.56	0.17518677	74.28023945	-74.1266961	10.53329801	-35.65232354
0.57	0.17530188	74.93487594	-73.97952418	10.63918024	-35.59089519
0.58	0.17543099	75.58649204	-73.81234506	10.74509466	-35.50323276
0.59	0.17556578	76.23249857	-73.62575551	10.85191772	-35.38672539
0.6	0.17570362	76.86207659	-73.42113088	10.96125932	-35.24806765
